<?xml version="1.0" standalone="no"?>
<!DOCTYPE svg PUBLIC "-//W3C//DTD SVG 20010904//EN"
 "http://www.w3.org/TR/2001/REC-SVG-20010904/DTD/svg10.dtd">
<svg version="1.0" xmlns="http://www.w3.org/2000/svg"
 width="512.000000pt" height="512.000000pt" viewBox="0 0 512.000000 512.000000"
 preserveAspectRatio="xMidYMid meet">

<g transform="translate(0.000000,512.000000) scale(0.100000,-0.100000)"
fill="#000000" stroke="none">
<path d="M2495 5109 c-724 -4 -1059 -9 -1104 -17 -141 -26 -371 -96 -371 -113
0 -6 -4 -7 -10 -4 -5 3 -10 2 -10 -4 0 -6 -7 -7 -17 -4 -12 5 -14 3 -8 -7 6
-10 4 -12 -8 -7 -10 3 -17 2 -17 -4 0 -6 -4 -7 -10 -4 -7 4 -10 -793 -10
-2385 0 -1592 3 -2389 10 -2385 5 3 10 1 10 -5 0 -6 4 -8 10 -5 5 3 10 2 10
-3 0 -6 7 -13 16 -16 8 -3 12 -2 9 4 -10 16 0 12 25 -10 13 -12 30 -18 37 -16
7 3 13 2 13 -2 0 -10 74 -36 175 -61 152 -38 269 -51 449 -51 l174 0 -338 543
c-186 298 -352 562 -369 587 -17 25 -46 74 -64 110 -29 59 -32 74 -32 155 0
77 4 98 27 149 16 32 26 62 23 66 -3 5 0 12 6 16 8 5 9 3 4 -7 -8 -12 -6 -12
8 0 10 7 16 19 15 25 -2 6 0 11 2 11 3 0 24 15 47 33 62 49 143 82 218 89 l66
6 -42 43 c-71 72 -179 103 -251 70 -13 -6 -21 7 -46 71 -39 102 -67 198 -88
303 -15 75 -18 184 -21 958 l-4 872 228 0 c263 0 317 -9 402 -68 47 -32 111
-106 123 -144 3 -8 34 3 94 34 506 260 1103 226 1576 -91 286 -192 507 -481
613 -804 59 -180 70 -257 70 -487 0 -178 -3 -219 -23 -308 -109 -486 -399
-864 -827 -1077 -254 -126 -400 -160 -700 -159 -231 0 -317 13 -500 74 -49 16
-82 24 -73 16 10 -7 18 -18 18 -23 0 -21 82 -82 132 -99 29 -9 55 -20 58 -23
3 -3 22 -15 44 -26 21 -11 41 -25 43 -32 3 -7 13 -13 24 -13 10 0 30 -5 45
-12 25 -12 26 -15 20 -68 -6 -46 -25 -781 -21 -787 5 -8 1273 -2 1331 6 550
80 1014 416 1249 906 84 174 132 345 155 550 13 121 13 2049 0 2170 -24 211
-72 379 -160 560 -236 482 -685 811 -1213 889 -149 22 -117 21 -1242 15z
m-1478 -2257 c-1 -229 -2 -41 -2 418 0 459 1 647 2 417 2 -229 2 -605 0 -835z
m10 -484 c-2 -13 -4 -3 -4 22 0 25 2 35 4 23 2 -13 2 -33 0 -45z m10 -70 c-3
-7 -5 -2 -5 12 0 14 2 19 5 13 2 -7 2 -19 0 -25z m10 -915 c-2 -16 -4 -5 -4
22 0 28 2 40 4 28 2 -13 2 -35 0 -50z m2164 -438 c7 -5 14 -4 17 3 2 7 9 12
16 12 9 0 10 -17 5 -67 -10 -89 -11 -306 -1 -319 4 -5 -68 67 -161 161 -92 93
-171 177 -176 186 -11 17 -10 17 124 19 39 0 76 4 83 9 16 10 74 7 93 -4z"/>
<path d="M2465 3380 c-336 -53 -602 -298 -691 -637 -26 -100 -24 -292 5 -398
101 -375 426 -627 811 -627 287 0 544 138 700 378 94 143 134 286 132 469 -3
442 -353 801 -796 820 -56 2 -128 0 -161 -5z m508 -400 c44 -39 61 -79 55
-134 -7 -59 -39 -101 -93 -121 -55 -21 -103 -14 -145 22 -77 64 -81 164 -8
229 31 28 43 32 105 33 44 1 57 -4 86 -29z"/>
<path d="M1360 1960 c-22 -5 -7 -6 40 -3 164 11 328 -52 445 -171 38 -39 60
-56 47 -39 -107 151 -358 251 -532 213z"/>
<path d="M1298 1943 c7 -3 16 -2 19 1 4 3 -2 6 -13 5 -11 0 -14 -3 -6 -6z"/>
<path d="M1920 1690 c6 -11 13 -20 16 -20 2 0 0 9 -6 20 -6 11 -13 20 -16 20
-2 0 0 -9 6 -20z"/>
<path d="M1740 1646 c0 -2 8 -10 18 -17 15 -13 16 -12 3 4 -13 16 -21 21 -21
13z"/>
<path d="M1789 1573 c27 -55 44 -149 37 -206 -16 -121 -93 -237 -198 -296 -26
-15 -46 -30 -44 -32 2 -2 -8 -5 -22 -5 -15 -1 -58 -7 -97 -12 l-70 -11 68 3
c39 2 67 0 67 -6 0 -14 131 -3 161 12 59 31 119 75 119 87 0 7 6 16 14 19 8 3
17 16 20 30 4 13 10 24 15 24 16 0 34 111 29 180 -5 58 -36 145 -58 160 -4 3
-17 24 -29 48 -12 23 -24 42 -26 42 -3 0 3 -17 14 -37z"/>
<path d="M1991 1494 c0 -11 3 -14 6 -6 3 7 2 16 -1 19 -3 4 -6 -2 -5 -13z"/>
<path d="M1358 1023 c6 -2 18 -2 25 0 6 3 1 5 -13 5 -14 0 -19 -2 -12 -5z"/>
</g>
</svg>
